<svg width="60" height="60" viewBox="0 0 60 60" fill="none" xmlns="http://www.w3.org/2000/svg">
  <path d="M20 44H14C13.4696 44 12.9609 43.7893 12.5858 43.4142C12.2107 43.0391 12 42.5304 12 42V24C12 23.4696 12.2107 22.9609 12.5858 22.5858C12.9609 22.2107 13.4696 22 14 22H20" stroke="#FFCC00" stroke-width="2" stroke-linecap="round" stroke-linejoin="round"/>
  <path d="M34 18H40C40.5304 18 41.0391 18.2107 41.4142 18.5858C41.7893 18.9609 42 19.4696 42 20V42C42 42.5304 41.7893 43.0391 41.4142 43.4142C41.0391 43.7893 40.5304 44 40 44H34" stroke="#FFCC00" stroke-width="2" stroke-linecap="round" stroke-linejoin="round"/>
  <path d="M34 31H20" stroke="#FFCC00" stroke-width="2" stroke-linecap="round" stroke-linejoin="round"/>
  <path d="M34 31C34 33.6522 33.3679 36.1957 32.1967 38.3333C31.0255 40.4709 29.3501 42.1027 27.3247 43.0504C25.2993 43.9982 23.0399 44.2131 20.8814 43.6716C18.7229 43.13 16.7768 41.8605 15.3431 40.0503C13.9094 38.2401 13.058 35.9935 12.9105 33.6485C12.7629 31.3035 13.327 28.9654 14.5208 26.9294C15.7146 24.8934 17.4785 23.2578 19.5918 22.2337C21.7051 21.2095 24.0789 20.8427 26.3815 21.1795" stroke="#FFCC00" stroke-width="2" stroke-linecap="round" stroke-linejoin="round"/>
</svg> 